<?xml version="1.0"?>
<svg xmlns="http://www.w3.org/2000/svg" xmlns:xlink="http://www.w3.org/1999/xlink" xmlns:svgjs="http://svgjs.com/svgjs" version="1.1" width="512" height="512" x="0" y="0" viewBox="0 0 24 24" style="enable-background:new 0 0 512 512" xml:space="preserve"><g><path xmlns="http://www.w3.org/2000/svg" d="M20,0H5A3,3,0,0,0,2,3V19.5A4.505,4.505,0,0,0,6.5,24H22V2A2,2,0,0,0,20,0ZM8,3V15H6.5a4.445,4.445,0,0,0-1.5.276V3ZM19,21H6.5a1.5,1.5,0,0,1,0-3H19v3Zm-8-6V3h8V15Z" fill="#007bff" data-original="#000000"/></g></svg>
